<mxfile host="app.diagrams.net" modified="2023-12-08T17:08:26.814Z" agent="Mozilla/5.0 (Windows NT 10.0; Win64; x64) AppleWebKit/537.36 (KHTML, like Gecko) Chrome/119.0.0.0 Safari/537.36" etag="nbeC1wory3qbeUX64p6H" version="22.1.7" type="onedrive">
  <diagram name="Page-1" id="iaWcJhKdrhirkMaxKd2l">
    <mxGraphModel grid="1" page="1" gridSize="10" guides="1" tooltips="1" connect="1" arrows="1" fold="1" pageScale="1" pageWidth="827" pageHeight="1169" math="0" shadow="0">
      <root>
        <mxCell id="0" />
        <mxCell id="1" parent="0" />
        <mxCell id="u9x8mNRvWzQb5hRQIPFC-63" value="Stack Values Passed to Second Stage" style="text;html=1;strokeColor=none;fillColor=none;align=center;verticalAlign=middle;whiteSpace=wrap;rounded=0;" vertex="1" parent="1">
          <mxGeometry x="325" y="280" width="210" height="30" as="geometry" />
        </mxCell>
        <mxCell id="u9x8mNRvWzQb5hRQIPFC-64" value="esp at 0x3520_startUnpacking" style="text;html=1;strokeColor=none;fillColor=none;align=center;verticalAlign=middle;whiteSpace=wrap;rounded=0;" vertex="1" parent="1">
          <mxGeometry x="160" y="310" width="170" height="30" as="geometry" />
        </mxCell>
        <mxCell id="u9x8mNRvWzQb5hRQIPFC-66" value="esp+0x24: returnArr" style="text;html=1;strokeColor=none;fillColor=none;align=center;verticalAlign=middle;whiteSpace=wrap;rounded=0;" vertex="1" parent="1">
          <mxGeometry x="180" y="340" width="150" height="30" as="geometry" />
        </mxCell>
        <mxCell id="u9x8mNRvWzQb5hRQIPFC-81" value="esp+0x28: returnArr+0x4" style="text;html=1;strokeColor=none;fillColor=none;align=center;verticalAlign=middle;whiteSpace=wrap;rounded=0;" vertex="1" parent="1">
          <mxGeometry x="180" y="370" width="150" height="30" as="geometry" />
        </mxCell>
        <mxCell id="u9x8mNRvWzQb5hRQIPFC-92" value="" style="group" connectable="0" vertex="1" parent="1">
          <mxGeometry x="330" y="310" width="200" height="390" as="geometry" />
        </mxCell>
        <mxCell id="u9x8mNRvWzQb5hRQIPFC-61" value="..." style="rounded=0;whiteSpace=wrap;html=1;container=0;" vertex="1" parent="u9x8mNRvWzQb5hRQIPFC-92">
          <mxGeometry width="200" height="30" as="geometry" />
        </mxCell>
        <mxCell id="u9x8mNRvWzQb5hRQIPFC-70" value="CreateActCtxW" style="rounded=0;whiteSpace=wrap;html=1;container=0;" vertex="1" parent="u9x8mNRvWzQb5hRQIPFC-92">
          <mxGeometry y="30" width="200" height="30" as="geometry" />
        </mxCell>
        <mxCell id="u9x8mNRvWzQb5hRQIPFC-71" value="ActivateActCtx" style="rounded=0;whiteSpace=wrap;html=1;container=0;" vertex="1" parent="u9x8mNRvWzQb5hRQIPFC-92">
          <mxGeometry y="60" width="200" height="30" as="geometry" />
        </mxCell>
        <mxCell id="u9x8mNRvWzQb5hRQIPFC-72" value="LoadLibraryA" style="rounded=0;whiteSpace=wrap;html=1;container=0;" vertex="1" parent="u9x8mNRvWzQb5hRQIPFC-92">
          <mxGeometry y="90" width="200" height="30" as="geometry" />
        </mxCell>
        <mxCell id="u9x8mNRvWzQb5hRQIPFC-73" value="GetProcAddress" style="rounded=0;whiteSpace=wrap;html=1;container=0;" vertex="1" parent="u9x8mNRvWzQb5hRQIPFC-92">
          <mxGeometry y="120" width="200" height="30" as="geometry" />
        </mxCell>
        <mxCell id="u9x8mNRvWzQb5hRQIPFC-74" value="..." style="rounded=0;whiteSpace=wrap;html=1;container=0;" vertex="1" parent="u9x8mNRvWzQb5hRQIPFC-92">
          <mxGeometry y="150" width="200" height="30" as="geometry" />
        </mxCell>
        <mxCell id="u9x8mNRvWzQb5hRQIPFC-75" value="VirtualAlloc" style="rounded=0;whiteSpace=wrap;html=1;container=0;" vertex="1" parent="u9x8mNRvWzQb5hRQIPFC-92">
          <mxGeometry y="180" width="200" height="30" as="geometry" />
        </mxCell>
        <mxCell id="u9x8mNRvWzQb5hRQIPFC-76" value="VirtualProtect" style="rounded=0;whiteSpace=wrap;html=1;container=0;" vertex="1" parent="u9x8mNRvWzQb5hRQIPFC-92">
          <mxGeometry y="210" width="200" height="30" as="geometry" />
        </mxCell>
        <mxCell id="u9x8mNRvWzQb5hRQIPFC-77" value="VirtualFree" style="rounded=0;whiteSpace=wrap;html=1;container=0;" vertex="1" parent="u9x8mNRvWzQb5hRQIPFC-92">
          <mxGeometry y="240" width="200" height="30" as="geometry" />
        </mxCell>
        <mxCell id="u9x8mNRvWzQb5hRQIPFC-78" value="UnmapViewOfFile" style="rounded=0;whiteSpace=wrap;html=1;container=0;" vertex="1" parent="u9x8mNRvWzQb5hRQIPFC-92">
          <mxGeometry y="270" width="200" height="30" as="geometry" />
        </mxCell>
        <mxCell id="u9x8mNRvWzQb5hRQIPFC-79" value="AddVectoredExceptionHandler" style="rounded=0;whiteSpace=wrap;html=1;container=0;" vertex="1" parent="u9x8mNRvWzQb5hRQIPFC-92">
          <mxGeometry y="300" width="200" height="30" as="geometry" />
        </mxCell>
        <mxCell id="u9x8mNRvWzQb5hRQIPFC-80" value="newRWMem+0x940f" style="rounded=0;whiteSpace=wrap;html=1;container=0;" vertex="1" parent="u9x8mNRvWzQb5hRQIPFC-92">
          <mxGeometry y="360" width="200" height="30" as="geometry" />
        </mxCell>
        <mxCell id="u9x8mNRvWzQb5hRQIPFC-91" value="RemoveVectoredExceptionHandler" style="rounded=0;whiteSpace=wrap;html=1;container=0;" vertex="1" parent="u9x8mNRvWzQb5hRQIPFC-92">
          <mxGeometry y="330" width="200" height="30" as="geometry" />
        </mxCell>
        <mxCell id="u3bMeMRoNaG4OSO7ZZ6b-1" value="" style="endArrow=none;html=1;rounded=0;exitX=1;exitY=0;exitDx=0;exitDy=0;entryX=1;entryY=1;entryDx=0;entryDy=0;edgeStyle=orthogonalEdgeStyle;" edge="1" parent="u9x8mNRvWzQb5hRQIPFC-92" source="u9x8mNRvWzQb5hRQIPFC-70" target="u9x8mNRvWzQb5hRQIPFC-91">
          <mxGeometry width="50" height="50" relative="1" as="geometry">
            <mxPoint x="60" y="260" as="sourcePoint" />
            <mxPoint x="110" y="210" as="targetPoint" />
            <Array as="points">
              <mxPoint x="240" y="30" />
              <mxPoint x="240" y="360" />
            </Array>
          </mxGeometry>
        </mxCell>
        <mxCell id="u9x8mNRvWzQb5hRQIPFC-94" value="0x3f400" style="rounded=0;whiteSpace=wrap;html=1;container=0;" vertex="1" parent="1">
          <mxGeometry x="330" y="700" width="200" height="30" as="geometry" />
        </mxCell>
        <mxCell id="u9x8mNRvWzQb5hRQIPFC-95" value="0x4" style="rounded=0;whiteSpace=wrap;html=1;container=0;" vertex="1" parent="1">
          <mxGeometry x="330" y="760" width="200" height="30" as="geometry" />
        </mxCell>
        <mxCell id="u9x8mNRvWzQb5hRQIPFC-96" value="0x265e8" style="rounded=0;whiteSpace=wrap;html=1;container=0;" vertex="1" parent="1">
          <mxGeometry x="330" y="790" width="200" height="30" as="geometry" />
        </mxCell>
        <mxCell id="u9x8mNRvWzQb5hRQIPFC-97" value="0x85000" style="rounded=0;whiteSpace=wrap;html=1;container=0;" vertex="1" parent="1">
          <mxGeometry x="330" y="820" width="200" height="30" as="geometry" />
        </mxCell>
        <mxCell id="u9x8mNRvWzQb5hRQIPFC-98" value="..." style="rounded=0;whiteSpace=wrap;html=1;container=0;" vertex="1" parent="1">
          <mxGeometry x="330" y="970" width="200" height="30" as="geometry" />
        </mxCell>
        <mxCell id="u9x8mNRvWzQb5hRQIPFC-102" value="esp+0x2c: returnArr+0x8" style="text;html=1;strokeColor=none;fillColor=none;align=center;verticalAlign=middle;whiteSpace=wrap;rounded=0;" vertex="1" parent="1">
          <mxGeometry x="180" y="400" width="150" height="30" as="geometry" />
        </mxCell>
        <mxCell id="u9x8mNRvWzQb5hRQIPFC-103" value="esp+0x30: returnArr+0xc" style="text;html=1;strokeColor=none;fillColor=none;align=center;verticalAlign=middle;whiteSpace=wrap;rounded=0;" vertex="1" parent="1">
          <mxGeometry x="180" y="430" width="150" height="30" as="geometry" />
        </mxCell>
        <mxCell id="u9x8mNRvWzQb5hRQIPFC-105" value="esp+0x40: returnArr+0x1c" style="text;html=1;strokeColor=none;fillColor=none;align=center;verticalAlign=middle;whiteSpace=wrap;rounded=0;" vertex="1" parent="1">
          <mxGeometry x="180" y="490" width="150" height="30" as="geometry" />
        </mxCell>
        <mxCell id="u9x8mNRvWzQb5hRQIPFC-107" value="esp+0x44: returnArr+0x20" style="text;html=1;strokeColor=none;fillColor=none;align=center;verticalAlign=middle;whiteSpace=wrap;rounded=0;" vertex="1" parent="1">
          <mxGeometry x="180" y="520" width="150" height="30" as="geometry" />
        </mxCell>
        <mxCell id="u9x8mNRvWzQb5hRQIPFC-109" value="esp+0x48: returnArr+0x24" style="text;html=1;strokeColor=none;fillColor=none;align=center;verticalAlign=middle;whiteSpace=wrap;rounded=0;" vertex="1" parent="1">
          <mxGeometry x="180" y="550" width="150" height="30" as="geometry" />
        </mxCell>
        <mxCell id="u9x8mNRvWzQb5hRQIPFC-110" value="esp+0x4c: returnArr+0x28" style="text;html=1;strokeColor=none;fillColor=none;align=center;verticalAlign=middle;whiteSpace=wrap;rounded=0;" vertex="1" parent="1">
          <mxGeometry x="180" y="580" width="150" height="30" as="geometry" />
        </mxCell>
        <mxCell id="u9x8mNRvWzQb5hRQIPFC-117" value="esp+0x50: returnArr+0x2c" style="text;html=1;strokeColor=none;fillColor=none;align=center;verticalAlign=middle;whiteSpace=wrap;rounded=0;" vertex="1" parent="1">
          <mxGeometry x="180" y="610" width="150" height="30" as="geometry" />
        </mxCell>
        <mxCell id="u9x8mNRvWzQb5hRQIPFC-118" value="esp+0x54: returnArr+0x30" style="text;html=1;strokeColor=none;fillColor=none;align=center;verticalAlign=middle;whiteSpace=wrap;rounded=0;" vertex="1" parent="1">
          <mxGeometry x="180" y="640" width="150" height="30" as="geometry" />
        </mxCell>
        <mxCell id="u9x8mNRvWzQb5hRQIPFC-119" value="esp+0x58: returnArr+0x34" style="text;html=1;strokeColor=none;fillColor=none;align=center;verticalAlign=middle;whiteSpace=wrap;rounded=0;" vertex="1" parent="1">
          <mxGeometry x="180" y="670" width="150" height="30" as="geometry" />
        </mxCell>
        <mxCell id="u9x8mNRvWzQb5hRQIPFC-120" value="esp+0x5c: returnArr+0x38" style="text;html=1;strokeColor=none;fillColor=none;align=center;verticalAlign=middle;whiteSpace=wrap;rounded=0;" vertex="1" parent="1">
          <mxGeometry x="180" y="700" width="150" height="30" as="geometry" />
        </mxCell>
        <mxCell id="u9x8mNRvWzQb5hRQIPFC-121" value="esp+0x60: returnArr+0x3c" style="text;html=1;strokeColor=none;fillColor=none;align=center;verticalAlign=middle;whiteSpace=wrap;rounded=0;" vertex="1" parent="1">
          <mxGeometry x="180" y="730" width="150" height="30" as="geometry" />
        </mxCell>
        <mxCell id="u9x8mNRvWzQb5hRQIPFC-122" value="esp+0x64: returnArr+0x40" style="text;html=1;strokeColor=none;fillColor=none;align=center;verticalAlign=middle;whiteSpace=wrap;rounded=0;" vertex="1" parent="1">
          <mxGeometry x="180" y="760" width="150" height="30" as="geometry" />
        </mxCell>
        <mxCell id="u9x8mNRvWzQb5hRQIPFC-123" value="esp+0x68: returnArr+0x44" style="text;html=1;strokeColor=none;fillColor=none;align=center;verticalAlign=middle;whiteSpace=wrap;rounded=0;" vertex="1" parent="1">
          <mxGeometry x="180" y="790" width="150" height="30" as="geometry" />
        </mxCell>
        <mxCell id="u9x8mNRvWzQb5hRQIPFC-124" value="esp+0x6c: returnArr+0x48" style="text;html=1;strokeColor=none;fillColor=none;align=center;verticalAlign=middle;whiteSpace=wrap;rounded=0;" vertex="1" parent="1">
          <mxGeometry x="180" y="820" width="150" height="30" as="geometry" />
        </mxCell>
        <mxCell id="u9x8mNRvWzQb5hRQIPFC-125" value="newestRWMem" style="rounded=0;whiteSpace=wrap;html=1;container=0;" vertex="1" parent="1">
          <mxGeometry x="330" y="730" width="200" height="30" as="geometry" />
        </mxCell>
        <mxCell id="u9x8mNRvWzQb5hRQIPFC-126" value="selfAddr -&amp;gt; 0x40000" style="rounded=0;whiteSpace=wrap;html=1;container=0;" vertex="1" parent="1">
          <mxGeometry x="330" y="850" width="200" height="30" as="geometry" />
        </mxCell>
        <mxCell id="u9x8mNRvWzQb5hRQIPFC-127" value="selfSizeOfImage -&amp;gt; 0x9e000" style="rounded=0;whiteSpace=wrap;html=1;container=0;" vertex="1" parent="1">
          <mxGeometry x="330" y="880" width="200" height="30" as="geometry" />
        </mxCell>
        <mxCell id="u9x8mNRvWzQb5hRQIPFC-128" value="esp+0x70: returnArr+0x4c" style="text;html=1;strokeColor=none;fillColor=none;align=center;verticalAlign=middle;whiteSpace=wrap;rounded=0;" vertex="1" parent="1">
          <mxGeometry x="180" y="850" width="150" height="30" as="geometry" />
        </mxCell>
        <mxCell id="u9x8mNRvWzQb5hRQIPFC-129" value="esp+0x74: returnArr+0x50" style="text;html=1;strokeColor=none;fillColor=none;align=center;verticalAlign=middle;whiteSpace=wrap;rounded=0;" vertex="1" parent="1">
          <mxGeometry x="180" y="880" width="150" height="30" as="geometry" />
        </mxCell>
        <mxCell id="u9x8mNRvWzQb5hRQIPFC-134" value="newXMem" style="rounded=0;whiteSpace=wrap;html=1;container=0;" vertex="1" parent="1">
          <mxGeometry x="330" y="910" width="200" height="30" as="geometry" />
        </mxCell>
        <mxCell id="u9x8mNRvWzQb5hRQIPFC-135" value="newXMem-0x40000" style="rounded=0;whiteSpace=wrap;html=1;container=0;" vertex="1" parent="1">
          <mxGeometry x="330" y="940" width="200" height="30" as="geometry" />
        </mxCell>
        <mxCell id="u9x8mNRvWzQb5hRQIPFC-136" value="esp+0x78: returnArr+0x54" style="text;html=1;strokeColor=none;fillColor=none;align=center;verticalAlign=middle;whiteSpace=wrap;rounded=0;" vertex="1" parent="1">
          <mxGeometry x="180" y="910" width="150" height="30" as="geometry" />
        </mxCell>
        <mxCell id="u9x8mNRvWzQb5hRQIPFC-137" value="esp+0x7c: returnArr+0x58" style="text;html=1;strokeColor=none;fillColor=none;align=center;verticalAlign=middle;whiteSpace=wrap;rounded=0;" vertex="1" parent="1">
          <mxGeometry x="180" y="940" width="150" height="30" as="geometry" />
        </mxCell>
        <mxCell id="u9x8mNRvWzQb5hRQIPFC-146" value="origESP" style="rounded=0;whiteSpace=wrap;html=1;container=0;" vertex="1" parent="1">
          <mxGeometry x="330" y="1000" width="200" height="30" as="geometry" />
        </mxCell>
        <mxCell id="u9x8mNRvWzQb5hRQIPFC-147" value="origEBP" style="rounded=0;whiteSpace=wrap;html=1;container=0;" vertex="1" parent="1">
          <mxGeometry x="330" y="1030" width="200" height="30" as="geometry" />
        </mxCell>
        <mxCell id="u9x8mNRvWzQb5hRQIPFC-148" value="esp+0x88: returnArr+0x64" style="text;html=1;strokeColor=none;fillColor=none;align=center;verticalAlign=middle;whiteSpace=wrap;rounded=0;" vertex="1" parent="1">
          <mxGeometry x="180" y="1000" width="150" height="30" as="geometry" />
        </mxCell>
        <mxCell id="u9x8mNRvWzQb5hRQIPFC-149" value="esp+0x8c: returnArr+0x68" style="text;html=1;strokeColor=none;fillColor=none;align=center;verticalAlign=middle;whiteSpace=wrap;rounded=0;" vertex="1" parent="1">
          <mxGeometry x="180" y="1030" width="150" height="30" as="geometry" />
        </mxCell>
        <mxCell id="u9x8mNRvWzQb5hRQIPFC-150" value="origESI" style="rounded=0;whiteSpace=wrap;html=1;container=0;" vertex="1" parent="1">
          <mxGeometry x="330" y="1060" width="200" height="30" as="geometry" />
        </mxCell>
        <mxCell id="u9x8mNRvWzQb5hRQIPFC-151" value="origEDI" style="rounded=0;whiteSpace=wrap;html=1;container=0;" vertex="1" parent="1">
          <mxGeometry x="330" y="1090" width="200" height="30" as="geometry" />
        </mxCell>
        <mxCell id="u9x8mNRvWzQb5hRQIPFC-152" value="esp+0x90: returnArr+0x6c" style="text;html=1;strokeColor=none;fillColor=none;align=center;verticalAlign=middle;whiteSpace=wrap;rounded=0;" vertex="1" parent="1">
          <mxGeometry x="180" y="1060" width="150" height="30" as="geometry" />
        </mxCell>
        <mxCell id="u9x8mNRvWzQb5hRQIPFC-153" value="esp+0x94: returnArr+0x70" style="text;html=1;strokeColor=none;fillColor=none;align=center;verticalAlign=middle;whiteSpace=wrap;rounded=0;" vertex="1" parent="1">
          <mxGeometry x="180" y="1090" width="150" height="30" as="geometry" />
        </mxCell>
        <mxCell id="u9x8mNRvWzQb5hRQIPFC-154" value="origEDX" style="rounded=0;whiteSpace=wrap;html=1;container=0;" vertex="1" parent="1">
          <mxGeometry x="330" y="1120" width="200" height="30" as="geometry" />
        </mxCell>
        <mxCell id="u9x8mNRvWzQb5hRQIPFC-155" value="esp+0x98: returnArr+0x74" style="text;html=1;strokeColor=none;fillColor=none;align=center;verticalAlign=middle;whiteSpace=wrap;rounded=0;" vertex="1" parent="1">
          <mxGeometry x="180" y="1120" width="150" height="30" as="geometry" />
        </mxCell>
        <mxCell id="u9x8mNRvWzQb5hRQIPFC-156" value="" style="endArrow=none;html=1;rounded=0;exitX=1;exitY=0;exitDx=0;exitDy=0;entryX=1;entryY=1;entryDx=0;entryDy=0;edgeStyle=orthogonalEdgeStyle;" edge="1" parent="1" source="u9x8mNRvWzQb5hRQIPFC-134" target="u9x8mNRvWzQb5hRQIPFC-135">
          <mxGeometry width="50" height="50" relative="1" as="geometry">
            <mxPoint x="320" y="940" as="sourcePoint" />
            <mxPoint x="370" y="890" as="targetPoint" />
            <Array as="points">
              <mxPoint x="570" y="910" />
              <mxPoint x="570" y="970" />
            </Array>
          </mxGeometry>
        </mxCell>
        <mxCell id="u9x8mNRvWzQb5hRQIPFC-158" value="0x1d70_DecryptedToRWX" style="text;html=1;strokeColor=none;fillColor=none;align=center;verticalAlign=middle;whiteSpace=wrap;rounded=0;" vertex="1" parent="1">
          <mxGeometry x="570" y="930" width="150" height="20" as="geometry" />
        </mxCell>
        <mxCell id="u9x8mNRvWzQb5hRQIPFC-159" value="" style="endArrow=none;html=1;rounded=0;exitX=1;exitY=0;exitDx=0;exitDy=0;entryX=1;entryY=1;entryDx=0;entryDy=0;edgeStyle=orthogonalEdgeStyle;" edge="1" parent="1" source="u9x8mNRvWzQb5hRQIPFC-146" target="u9x8mNRvWzQb5hRQIPFC-154">
          <mxGeometry width="50" height="50" relative="1" as="geometry">
            <mxPoint x="440" y="940" as="sourcePoint" />
            <mxPoint x="490" y="890" as="targetPoint" />
            <Array as="points">
              <mxPoint x="570" y="1000" />
              <mxPoint x="570" y="1150" />
            </Array>
          </mxGeometry>
        </mxCell>
        <mxCell id="u9x8mNRvWzQb5hRQIPFC-160" value="0x3520_startUnpacking" style="text;html=1;strokeColor=none;fillColor=none;align=center;verticalAlign=middle;whiteSpace=wrap;rounded=0;" vertex="1" parent="1">
          <mxGeometry x="570" y="1060" width="140" height="30" as="geometry" />
        </mxCell>
        <mxCell id="u9x8mNRvWzQb5hRQIPFC-161" value="" style="endArrow=none;html=1;rounded=0;exitX=1;exitY=0;exitDx=0;exitDy=0;edgeStyle=orthogonalEdgeStyle;" edge="1" parent="1">
          <mxGeometry width="50" height="50" relative="1" as="geometry">
            <mxPoint x="530" y="670" as="sourcePoint" />
            <mxPoint x="530" y="730" as="targetPoint" />
            <Array as="points">
              <mxPoint x="570" y="670" />
              <mxPoint x="570" y="730" />
              <mxPoint x="530" y="730" />
            </Array>
          </mxGeometry>
        </mxCell>
        <mxCell id="u9x8mNRvWzQb5hRQIPFC-162" value="0x3520_startUnpacking" style="text;html=1;strokeColor=none;fillColor=none;align=center;verticalAlign=middle;whiteSpace=wrap;rounded=0;" vertex="1" parent="1">
          <mxGeometry x="570" y="684" width="140" height="30" as="geometry" />
        </mxCell>
        <mxCell id="u9x8mNRvWzQb5hRQIPFC-163" value="" style="endArrow=none;html=1;rounded=0;exitX=1;exitY=0;exitDx=0;exitDy=0;edgeStyle=orthogonalEdgeStyle;" edge="1" parent="1">
          <mxGeometry width="50" height="50" relative="1" as="geometry">
            <mxPoint x="530" y="850" as="sourcePoint" />
            <mxPoint x="530" y="910" as="targetPoint" />
            <Array as="points">
              <mxPoint x="570" y="850" />
              <mxPoint x="570" y="910" />
              <mxPoint x="530" y="910" />
            </Array>
          </mxGeometry>
        </mxCell>
        <mxCell id="u9x8mNRvWzQb5hRQIPFC-164" value="0x3520_startUnpacking" style="text;html=1;strokeColor=none;fillColor=none;align=center;verticalAlign=middle;whiteSpace=wrap;rounded=0;" vertex="1" parent="1">
          <mxGeometry x="570" y="864" width="140" height="30" as="geometry" />
        </mxCell>
        <mxCell id="u3bMeMRoNaG4OSO7ZZ6b-2" value="getFuncAddrs" style="text;html=1;strokeColor=none;fillColor=none;align=center;verticalAlign=middle;whiteSpace=wrap;rounded=0;" vertex="1" parent="1">
          <mxGeometry x="580" y="495" width="80" height="20" as="geometry" />
        </mxCell>
        <mxCell id="u3bMeMRoNaG4OSO7ZZ6b-3" value="" style="endArrow=none;html=1;rounded=0;exitX=1;exitY=1;exitDx=0;exitDy=0;entryX=1;entryY=1;entryDx=0;entryDy=0;edgeStyle=orthogonalEdgeStyle;" edge="1" parent="1" source="u9x8mNRvWzQb5hRQIPFC-94" target="u9x8mNRvWzQb5hRQIPFC-97">
          <mxGeometry width="50" height="50" relative="1" as="geometry">
            <mxPoint x="390" y="870" as="sourcePoint" />
            <mxPoint x="440" y="820" as="targetPoint" />
            <Array as="points">
              <mxPoint x="570" y="730" />
              <mxPoint x="570" y="850" />
            </Array>
          </mxGeometry>
        </mxCell>
        <mxCell id="u3bMeMRoNaG4OSO7ZZ6b-5" value="unpackFunc_d" style="text;html=1;strokeColor=none;fillColor=none;align=center;verticalAlign=middle;whiteSpace=wrap;rounded=0;" vertex="1" parent="1">
          <mxGeometry x="575" y="770" width="90" height="30" as="geometry" />
        </mxCell>
      </root>
    </mxGraphModel>
  </diagram>
</mxfile>
